<svg width="32" height="32" viewBox="0 0 32 32" fill="none" xmlns="http://www.w3.org/2000/svg">
<path fill-rule="evenodd" clip-rule="evenodd" d="M24.9427 9.72388C25.1927 9.97392 25.3331 10.313 25.3331 10.6665C25.3331 11.0201 25.1927 11.3592 24.9427 11.6092L14.276 22.2759C14.026 22.5258 13.6869 22.6663 13.3334 22.6663C12.9798 22.6663 12.6407 22.5258 12.3907 22.2759L7.05736 16.9425C6.81448 16.6911 6.68009 16.3543 6.68313 16.0047C6.68616 15.6551 6.82639 15.3207 7.0736 15.0735C7.32081 14.8262 7.65523 14.686 8.00482 14.683C8.35442 14.6799 8.69122 14.8143 8.94269 15.0572L13.3334 19.4479L23.0574 9.72388C23.3074 9.47392 23.6465 9.3335 24 9.3335C24.3536 9.3335 24.6927 9.47392 24.9427 9.72388Z" fill="white"/>
</svg>
