<svg width="24" height="24" viewBox="0 0 24 24" fill="none" xmlns="http://www.w3.org/2000/svg">
<path fill-rule="evenodd" clip-rule="evenodd" d="M3.57364 9.54553C4.19239 8.20907 5.03672 7.28012 5.93109 6.3815C6.82546 5.48289 7.99082 4.5197 9.22921 3.79859C11.0509 2.73783 12.5689 3.28157 13.8243 3.96002C15.0798 4.63849 16.1433 5.45056 17.0377 6.3492C17.9321 7.24784 18.9029 8.57948 19.2532 9.54023C19.8975 11.3074 20.0679 12.481 19.1907 14.1302C18.5769 15.2841 17.8678 16.105 16.9734 17.0037C16.8313 17.1465 16.6873 17.2939 16.541 17.4437L16.5409 17.4439L16.5409 17.4439C15.7668 18.2366 14.9263 19.0974 13.9288 19.7116C12.5326 20.5712 10.7412 20.3199 9.06853 19.522C7.81463 18.9238 7.16727 18.322 6.2729 17.4234C5.3785 16.5247 4.23426 15.236 3.70218 14.1302C2.92675 12.5187 2.79558 11.226 3.57364 9.54553ZM4.38393 9.65678C4.92369 8.49099 5.62123 7.56087 6.40142 6.77699C7.18161 5.9931 8.17453 5.14878 9.3174 4.64361C10.4411 4.14687 12.4246 4.30947 13.3259 4.78443C14.2271 5.25938 15.3488 6.08467 16.129 6.86856C16.9092 7.65245 17.905 8.75528 18.2105 9.59336C18.7725 11.1349 19.0831 12.0993 18.6326 13.6267C18.3196 14.6874 17.3786 15.8362 16.6291 16.6201L16.4813 16.7751C15.6892 17.6068 14.2571 19.1103 13.2634 19.5141C11.7495 20.1294 10.2501 19.455 8.94675 18.663C7.84593 17.9941 7.21138 17.3734 6.49267 16.5895C5.77395 15.8056 4.9602 14.6207 4.49606 13.6561C3.81967 12.2504 3.70522 11.1227 4.38393 9.65678Z" fill="#28ACD4"/>
<path fill-rule="evenodd" clip-rule="evenodd" d="M20.4236 9.54602C19.8048 8.20956 18.9605 7.2806 18.0661 6.38199C17.1718 5.48338 16.0064 4.52019 14.768 3.79908C12.9463 2.73832 11.4283 3.28205 10.1729 3.96051C8.91744 4.63898 7.85388 5.45105 6.95948 6.34969C6.0651 7.24833 5.09429 8.57997 4.74402 9.54072C4.09974 11.3078 3.92931 12.4815 4.80653 14.1307C5.4203 15.2846 6.12941 16.1055 7.02378 17.0041C7.16595 17.147 7.30987 17.2944 7.45618 17.4442L7.45635 17.4444L7.45636 17.4444C8.23042 18.2371 9.07096 19.0979 10.0684 19.7121C11.4646 20.5717 13.256 20.3204 14.9287 19.5224C16.1826 18.9243 16.83 18.3225 17.7243 17.4239C18.6187 16.5252 19.763 15.2365 20.295 14.1307C21.0705 12.5192 21.2016 11.2265 20.4236 9.54602ZM19.6149 9.65807C19.0751 8.49227 18.3776 7.56216 17.5974 6.77827C16.8172 5.99438 15.8243 5.15007 14.6814 4.6449C13.5577 4.14816 11.5742 4.31076 10.673 4.78572C9.77175 5.26067 8.65005 6.08596 7.86986 6.86985C7.08967 7.65373 6.09385 8.75656 5.78832 9.59464C5.22635 11.1361 4.91568 12.1006 5.36626 13.628C5.67922 14.6887 6.62026 15.8375 7.36971 16.6214L7.51755 16.7764C8.30965 17.6081 9.74172 19.1116 10.7354 19.5154C12.2494 20.1306 13.7488 19.4563 15.0521 18.6643C16.1529 17.9953 16.7874 17.3747 17.5062 16.5908C18.2249 15.8069 19.0386 14.6219 19.5028 13.6574C20.1792 12.2517 20.2936 11.124 19.6149 9.65807Z" fill="#28ACD4"/>
<mask id="mask0_1373_14438" style="mask-type:luminance" maskUnits="userSpaceOnUse" x="2" y="2" width="20" height="20">
<path fill-rule="evenodd" clip-rule="evenodd" d="M2.00122 12.0281V11.8818C2.01303 11.1119 2.21157 10.325 2.62458 9.44814C3.36347 7.87905 4.47303 6.78848 5.54106 5.73332C6.60931 4.67829 7.89991 3.54741 9.37892 2.70084C11.5545 1.45541 13.3675 2.09385 14.8669 2.8904C16.3662 3.68691 17.6365 4.64039 18.7047 5.6954C19.7728 6.75043 20.9323 8.31399 21.3507 9.44198C22.1201 11.5166 22.3236 12.8946 21.276 14.8308C20.5429 16.1856 19.696 17.1495 18.6278 18.2045C17.5597 19.2596 16.2811 20.3001 14.8669 21.1612C12.8875 22.3666 11.1398 22.1864 9.18698 21.1612C7.63165 20.3445 6.91644 19.7523 5.84815 18.6972C4.78006 17.6422 3.41354 16.1291 2.77804 14.8308C2.28959 13.833 2.01519 12.9394 2.00122 12.0281H2.00122ZM3.119 9.46404C2.30829 11.1851 2.44488 12.5089 3.25283 14.1594C3.80718 15.292 4.99923 16.6118 5.93098 17.5322C6.86283 18.4525 7.48672 18.9691 8.84345 19.6815C10.547 20.5758 12.0715 20.733 13.7982 19.6815C15.0319 18.9303 16.1472 18.0227 17.0789 17.1023C18.0107 16.182 18.7495 15.3412 19.389 14.1594C20.3028 12.4704 20.1253 11.2684 19.4541 9.4586C19.0891 8.47466 18.0778 7.11072 17.1459 6.19044C16.2142 5.27007 15.1062 4.43834 13.7982 3.74349C12.4904 3.04868 10.9088 2.49174 9.0109 3.57813C7.72078 4.31668 6.59492 5.30309 5.66308 6.2234C4.73143 7.14389 3.76353 8.09521 3.119 9.46404Z" fill="white"/>
</mask>
<g mask="url(#mask0_1373_14438)">
<path d="M2.00113 22.0018L57.5627 22.0018V1.99951L2.00113 1.99951L2.00113 22.0018Z" fill="#28ACD4"/>
</g>
<mask id="mask1_1373_14438" style="mask-type:luminance" maskUnits="userSpaceOnUse" x="3" y="3" width="19" height="18">
<path fill-rule="evenodd" clip-rule="evenodd" d="M3.59198 12.0213V11.8983C3.60286 11.2517 3.78563 10.5907 4.16585 9.85409C4.84607 8.53606 5.86755 7.61998 6.85078 6.73365C7.83421 5.84742 9.02234 4.89748 10.3839 4.18636C12.3868 3.1402 14.0559 3.67649 15.4362 4.34559C16.8165 5.01466 17.9859 5.81559 18.9693 6.70179C19.9526 7.58802 21.02 8.90141 21.4052 9.84892C22.1135 11.5916 22.3009 12.7491 21.3364 14.3755C20.6616 15.5136 19.8819 16.3232 18.8985 17.2094C17.9152 18.0957 16.7381 18.9697 15.4362 19.6931C13.6139 20.7056 12.005 20.5542 10.2072 19.6931C8.77539 19.007 8.11696 18.5096 7.13349 17.6233C6.1502 16.7371 4.89217 15.4661 4.30712 14.3755C3.85745 13.5374 3.60484 12.7867 3.59198 12.0213H3.59198ZM4.61486 9.86637C3.86851 11.312 3.99426 12.4241 4.73806 13.8105C5.2484 14.7618 6.34581 15.8705 7.20358 16.6436C8.06145 17.4167 8.63581 17.8506 9.88482 18.4491C11.4532 19.2003 12.8566 19.3323 14.4462 18.4491C15.5819 17.8181 16.6087 17.0556 17.4664 16.2825C18.3243 15.5095 19.0044 14.8032 19.5931 13.8105C20.4344 12.3917 20.2709 11.382 19.6531 9.8618C19.3171 9.0353 18.386 7.88959 17.5281 7.11655C16.6704 6.34344 15.6503 5.64479 14.4462 5.06112C13.2422 4.47747 11.7861 4.00964 10.039 4.92221C8.85128 5.54259 7.81481 6.37118 6.95695 7.14424C6.09926 7.91745 5.20822 8.71656 4.61486 9.86637Z" fill="white"/>
</mask>
<g mask="url(#mask1_1373_14438)">
<path d="M3.59189 20.3991L54.7422 20.3991V3.59717L3.59189 3.59717L3.59189 20.3991Z" fill="#28ACD4"/>
</g>
<mask id="mask2_1373_14438" style="mask-type:luminance" maskUnits="userSpaceOnUse" x="3" y="2" width="18" height="17">
<path fill-rule="evenodd" clip-rule="evenodd" d="M3.59036 10.3776V10.5006C3.6003 11.1473 3.76731 11.8083 4.11474 12.5448C4.7363 13.8629 5.66968 14.7789 6.56812 15.6653C7.46674 16.5515 8.55241 17.5014 9.79657 18.2126C11.6267 19.2587 13.1518 18.7224 14.4131 18.0533C15.6744 17.3843 16.7429 16.5833 17.6415 15.6971C18.54 14.8109 19.5154 13.4975 19.8674 12.55C20.5146 10.8073 20.6858 9.64978 19.8045 8.02338C19.1879 6.88534 18.4755 6.0757 17.5768 5.1895C16.6783 4.30325 15.6028 3.42921 14.4131 2.70585C12.748 1.69336 11.2779 1.84472 9.6351 2.70585C8.32675 3.39189 7.7251 3.88936 6.82645 4.77559C5.92796 5.66182 4.77842 6.93279 4.24383 8.02338C3.83294 8.86152 3.60212 9.6122 3.59036 10.3776H3.59036ZM4.52547 12.5282C3.84349 11.0825 3.95839 9.97045 4.63804 8.58406C5.10437 7.6327 6.10714 6.52401 6.89094 5.7509C7.67482 4.97784 8.19965 4.5439 9.34094 3.94545C10.774 3.19424 12.0564 3.06223 13.5089 3.94545C14.5467 4.57646 15.4849 5.33891 16.2687 6.11202C17.0526 6.88503 17.6741 7.59132 18.2119 8.58406C18.9807 10.0028 18.8314 11.0125 18.2668 12.5327C17.9597 13.3592 17.109 14.5049 16.3251 15.278C15.5413 16.0511 14.6092 16.7497 13.5089 17.3334C12.4088 17.9171 11.0783 18.3849 9.4818 17.4723C8.39654 16.8519 7.44945 16.0234 6.66558 15.2503C5.88186 14.4771 5.06766 13.678 4.52547 12.5282Z" fill="white"/>
</mask>
<g mask="url(#mask2_1373_14438)">
<path d="M3.59036 1.99932L50.3294 1.99932V18.8013L3.59036 18.8013L3.59036 1.99932Z" fill="#28ACD4"/>
</g>
<mask id="mask3_1373_14438" style="mask-type:luminance" maskUnits="userSpaceOnUse" x="2" y="2" width="20" height="20">
<path fill-rule="evenodd" clip-rule="evenodd" d="M21.9965 12.0291V11.8827C21.9847 11.1129 21.7862 10.326 21.3732 9.44911C20.6343 7.88003 19.5247 6.78946 18.4567 5.7343C17.3884 4.67926 16.0978 3.54838 14.6188 2.70182C12.4432 1.45638 10.6302 2.09482 9.13082 2.89137C7.63151 3.68788 6.36127 4.64137 5.29309 5.69638C4.22494 6.75141 3.06545 8.31497 2.64706 9.44296C1.87767 11.5176 1.67411 12.8956 2.72178 14.8318C3.45481 16.1866 4.30169 17.1505 5.36994 18.2055C6.43806 19.2605 7.71664 20.301 9.13082 21.1622C11.1103 22.3675 12.8579 22.1873 14.8108 21.1622C16.3661 20.3455 17.0813 19.7532 18.1496 18.6982C19.2177 17.6432 20.5842 16.1301 21.2197 14.8318C21.7082 13.834 21.9825 12.9404 21.9965 12.0291H21.9965ZM20.8782 9.46455C21.689 11.1856 21.5524 12.5094 20.7444 14.1599C20.1901 15.2925 18.998 16.6123 18.0663 17.5327C17.1344 18.453 16.5105 18.9696 15.1538 19.6821C13.4502 20.5764 11.9258 20.7335 10.199 19.6821C8.96539 18.9309 7.85006 18.0232 6.91832 17.1028C5.9865 16.1826 5.24771 15.3417 4.60829 14.1599C3.69443 12.4709 3.87195 11.2689 4.54311 9.45911C4.9081 8.47518 5.91948 7.11123 6.85132 6.19096C7.78307 5.27059 8.89108 4.43885 10.199 3.74401C11.5069 3.04919 13.0885 2.49225 14.9863 3.57865C16.2765 4.31719 17.4023 5.3036 18.3342 6.22391C19.2658 7.14441 20.2337 8.09572 20.8782 9.46455Z" fill="white"/>
</mask>
<g mask="url(#mask3_1373_14438)">
<path d="M21.9964 22.0028L-33.5651 22.0028V2.00049L21.9964 2.00049V22.0028Z" fill="#28ACD4"/>
</g>
<mask id="mask4_1373_14438" style="mask-type:luminance" maskUnits="userSpaceOnUse" x="4" y="4" width="15" height="16">
<path fill-rule="evenodd" clip-rule="evenodd" d="M18.2552 13.7519C17.7361 14.8989 16.9568 15.6961 16.2066 16.4674C15.4563 17.2386 14.5498 18.0652 13.5109 18.6841C11.9828 19.5945 10.7094 19.1279 9.65624 18.5456C8.6031 17.9633 7.71092 17.2663 6.96064 16.4951C6.21038 15.7238 5.396 14.581 5.10217 13.7564C4.56171 12.2398 4.41874 11.2325 5.15461 9.8171C5.66948 8.82671 6.2643 8.12219 7.01458 7.35095C7.76484 6.5797 8.66291 5.8191 9.65624 5.18963C11.0466 4.30852 12.2425 4.50476 13.6457 5.18963C14.6976 5.70302 15.2406 6.21949 15.9909 6.99073C16.7412 7.76198 17.701 8.86806 18.1474 9.8171C18.7978 11.2001 18.9079 12.3096 18.2552 13.7519ZM17.5914 13.6582C18.1608 12.4001 18.0648 11.4323 17.4974 10.2258C17.108 9.39794 16.2707 8.43309 15.6162 7.76032C14.9618 7.08753 14.5235 6.70992 13.5705 6.18915C12.374 5.5354 10.5764 5.8601 10.0904 6.18915C9.30208 6.72292 8.44049 7.40177 7.78602 8.07455C7.13155 8.74732 6.61267 9.36188 6.16351 10.2258C5.52162 11.4605 5.64633 12.3392 6.11777 13.6621C6.37409 14.3814 7.08449 15.3784 7.73896 16.0512C8.39346 16.7239 9.33439 17.4322 10.0904 17.8399C10.8464 18.2475 12.5103 18.387 13.4529 17.9607C14.4116 17.5271 15.1824 16.7667 15.8369 16.0939C16.4914 15.4211 17.1386 14.6587 17.5914 13.6582Z" fill="white"/>
</mask>
<g mask="url(#mask4_1373_14438)">
<path d="M1.99847 22.0048L57.56 22.0048V2.00244L1.99847 2.00244L1.99847 22.0048Z" fill="#28ACD4"/>
</g>
<mask id="mask5_1373_14438" style="mask-type:luminance" maskUnits="userSpaceOnUse" x="5" y="4" width="15" height="16">
<path fill-rule="evenodd" clip-rule="evenodd" d="M5.74189 13.7519C6.26096 14.8989 7.04027 15.6961 7.79052 16.4674C8.5408 17.2386 9.44728 18.0652 10.4861 18.6841C12.0143 19.5945 13.2877 19.1279 14.3408 18.5456C15.394 17.9633 16.2861 17.2663 17.0364 16.4951C17.7867 15.7238 18.6011 14.581 18.8949 13.7564C19.4354 12.2398 19.5783 11.2325 18.8425 9.8171C18.3276 8.82671 17.7328 8.12219 16.9825 7.35095C16.2322 6.5797 15.3342 5.8191 14.3408 5.18963C12.9505 4.30852 11.7545 4.50476 10.3513 5.18963C9.29948 5.70302 8.75645 6.21949 8.0062 6.99073C7.25592 7.76198 6.29607 8.86806 5.84971 9.8171C5.19924 11.2001 5.0892 12.3096 5.74189 13.7519ZM6.40325 13.6592C5.83391 12.4011 5.92989 11.4333 6.49732 10.2268C6.88669 9.39897 7.72397 8.43412 8.37845 7.76135C9.03294 7.08856 9.47115 6.71095 10.4242 6.19018C11.6207 5.53643 13.4183 5.86113 13.9043 6.19018C14.6926 6.72395 15.5542 7.4028 16.2087 8.07558C16.8631 8.74834 17.382 9.36291 17.8312 10.2268C18.4731 11.4615 18.3484 12.3402 17.8769 13.6632C17.6206 14.3825 16.9102 15.3794 16.2557 16.0522C15.6012 16.725 14.6603 17.4333 13.9043 17.8409C13.1483 18.2485 11.4844 18.3881 10.5418 17.9617C9.58305 17.5282 8.81228 16.7677 8.15781 16.0949C7.50333 15.4221 6.85606 14.6598 6.40325 13.6592Z" fill="white"/>
</mask>
<g mask="url(#mask5_1373_14438)">
<path d="M21.9933 22.0057L-33.5683 22.0057V2.00342L21.9933 2.00342V22.0057Z" fill="#28ACD4"/>
</g>
<mask id="mask6_1373_14438" style="mask-type:luminance" maskUnits="userSpaceOnUse" x="4" y="4" width="17" height="17">
<path fill-rule="evenodd" clip-rule="evenodd" d="M19.6864 14.58C19.0846 15.8823 18.1809 16.7874 17.3111 17.6632C16.4411 18.5388 15.3899 19.4774 14.1854 20.18C12.4135 21.2137 10.9369 20.6838 9.71572 20.0227C8.49463 19.3616 7.4601 18.5702 6.59012 17.6946C5.72018 16.819 4.7758 15.5213 4.4351 14.5851C3.80848 12.8633 3.93594 11.7847 4.64495 10.1944C5.1689 9.01912 5.78275 8.18826 6.65272 7.31263C7.52269 6.43699 8.40748 5.69601 9.58328 5.02216C11.1292 4.13623 12.8175 4.10585 14.3417 4.85866C15.6296 5.49476 16.1909 6.02802 17.061 6.90366C17.9309 7.77929 19.0438 9.03507 19.5614 10.1126C20.3157 11.6829 20.4432 12.9425 19.6864 14.58ZM19.2853 14.5657C19.9456 13.1373 19.8343 12.0385 19.1763 10.6687C18.7248 9.72873 17.7539 8.63329 16.9951 7.86943C16.2362 7.10561 15.728 6.67686 14.6231 6.08556C13.2356 5.34333 11.994 5.21293 10.5877 6.08556C9.58301 6.70903 8.58715 7.424 7.82827 8.18782C7.0694 8.95164 6.55516 9.68786 6.0344 10.6687C5.29013 12.0705 5.43469 13.0682 5.98131 14.5702C6.27857 15.3868 7.10227 16.5188 7.8612 17.2826C8.62005 18.0465 9.52246 18.7368 10.5877 19.3135C11.6529 19.8901 12.941 20.3524 14.4867 19.4507C15.5374 18.8378 16.4543 18.0191 17.2133 17.2553C17.9721 16.4913 18.7603 15.7017 19.2853 14.5657Z" fill="white"/>
</mask>
<g mask="url(#mask6_1373_14438)">
<path d="M1.99655 22.0023L57.5581 22.0023V2L1.99655 2L1.99655 22.0023Z" fill="#28ACD4"/>
</g>
<mask id="mask7_1373_14438" style="mask-type:luminance" maskUnits="userSpaceOnUse" x="3" y="3" width="19" height="18">
<path fill-rule="evenodd" clip-rule="evenodd" d="M4.34321 14.1685C4.98539 15.5582 5.94974 16.5241 6.87798 17.4586C7.80641 18.3931 8.92809 19.3947 10.2135 20.1444C12.1044 21.2475 13.6801 20.6821 14.9833 19.9766C16.2863 19.2711 17.3903 18.4266 18.3187 17.4922C19.2471 16.5578 20.2548 15.173 20.6184 14.174C21.2871 12.3365 21.1511 11.1856 20.3945 9.48841C19.8353 8.23426 19.1803 7.34761 18.2519 6.41319C17.3235 5.47877 16.3793 4.68805 15.1246 3.96895C13.4749 3.02354 11.6732 2.99112 10.0467 3.79448C8.67236 4.47328 8.07334 5.04235 7.14488 5.97677C6.21658 6.91119 5.02891 8.25128 4.47658 9.40118C3.67159 11.0769 3.53554 12.4211 4.34321 14.1685ZM4.76673 14.145C4.06212 12.6207 4.18084 11.4482 4.88304 9.98638C5.36483 8.98328 6.40087 7.8143 7.21067 6.99915C8.02056 6.18405 8.56279 5.72651 9.74195 5.09552C11.2226 4.30346 12.5475 4.1643 14.0482 5.09552C15.1204 5.76085 16.1831 6.52382 16.9929 7.33892C17.8027 8.15402 18.3515 8.93967 18.9072 9.98638C19.7015 11.4823 19.5472 12.5469 18.9639 14.1498C18.6467 15.0212 17.7677 16.2292 16.9578 17.0443C16.148 17.8595 15.185 18.5961 14.0482 19.2115C12.9115 19.8269 11.5369 20.3202 9.88748 19.358C8.76622 18.7039 7.78772 17.8302 6.97783 17.0151C6.16811 16.1999 5.32691 15.3573 4.76673 14.145Z" fill="white"/>
</mask>
<g mask="url(#mask7_1373_14438)">
<path d="M23.2165 22.0811L-36.0753 22.0811V0.73584L23.2165 0.73584V22.0811Z" fill="#28ACD4"/>
</g>
</svg>
