<svg width="24" height="24" viewBox="0 0 24 24" fill="none" xmlns="http://www.w3.org/2000/svg">
<path d="M10.5656 21.3057L4.25042 16.3756C3.95111 16.142 3.89861 15.7099 4.13312 15.4109L14.4559 2.25048C14.6901 1.9519 15.122 1.89903 15.4209 2.13234L21.7361 7.06237C22.0354 7.296 22.0879 7.72807 21.8534 8.0271L11.5306 21.1875C11.2964 21.4861 10.8646 21.539 10.5656 21.3057Z" fill="#57AD7B"/>
<path d="M6.57836 21.7089L2.11678 15.0606C1.90523 14.7454 1.98977 14.3183 2.30552 14.1068L16.2124 4.7961C16.5278 4.58496 16.9545 4.66897 17.1658 4.98383L21.6274 11.6321C21.8389 11.9473 21.7544 12.3744 21.4387 12.5859L7.53176 21.8966C7.21638 22.1077 6.78966 22.0237 6.57836 21.7089Z" fill="#81CDA1"/>
<path d="M21.6274 11.6321L17.1659 4.98383C16.9546 4.66897 16.5279 4.58496 16.2125 4.7961L15.6713 5.15842L20.0157 11.6321C20.2273 11.9473 20.1427 12.3744 19.827 12.5859L6.46121 21.5343L6.57839 21.7089C6.78969 22.0237 7.21641 22.1077 7.53179 21.8966L21.4387 12.5859C21.7545 12.3744 21.839 11.9473 21.6274 11.6321Z" fill="#60BF88"/>
<path d="M15.5315 13.5653C15.6489 11.5458 14.105 9.81346 12.0833 9.69596C10.0615 9.57847 8.3274 11.1203 8.21004 13.1398C8.09267 15.1593 9.63649 16.8916 11.6583 17.0091C13.68 17.1266 15.4141 15.5848 15.5315 13.5653Z" fill="#29795D"/>
<path d="M4.20866 12.8328C5.12499 14.1982 4.75977 16.047 3.39291 16.9622L2.11623 15.0598C1.90496 14.745 1.9897 14.3184 2.30553 14.1069L4.20866 12.8328Z" fill="#29795D"/>
<path d="M5.30518 19.8117C6.67494 18.8947 8.52666 19.2558 9.44106 20.6184L7.53264 21.8961C7.21685 22.1075 6.78957 22.0237 6.57831 21.7089L5.30518 19.8117Z" fill="#29795D"/>
<path d="M19.5365 13.8613C18.6201 12.4959 18.9854 10.6471 20.3522 9.73193L21.6289 11.6343C21.8402 11.9491 21.7554 12.3757 21.4396 12.5871L19.5365 13.8613Z" fill="#29795D"/>
<path d="M18.4399 6.88243C17.0702 7.79952 15.2184 7.43837 14.304 6.07578L16.2125 4.79809C16.5282 4.58666 16.9555 4.67048 17.1668 4.98525L18.4399 6.88243Z" fill="#29795D"/>
<path d="M16.4746 10.5675C16.3771 10.5675 16.2815 10.5204 16.2232 10.4333C16.1304 10.2946 16.1675 10.1069 16.3062 10.0141L17.7289 9.06159C17.8676 8.96879 18.0553 9.0059 18.1482 9.14459C18.241 9.28329 18.2038 9.47098 18.0652 9.56385L16.6425 10.5163C16.5909 10.5509 16.5324 10.5675 16.4746 10.5675Z" fill="#29795D"/>
<path d="M5.84755 17.6824C5.75007 17.6824 5.65446 17.6354 5.59615 17.5483C5.50331 17.4096 5.54046 17.2219 5.67916 17.1291L7.10178 16.1766C7.24044 16.0837 7.42813 16.1209 7.52104 16.2596C7.61388 16.3983 7.57673 16.586 7.43804 16.6788L6.01541 17.6313C5.96375 17.6659 5.90533 17.6824 5.84755 17.6824Z" fill="#29795D"/>
<path d="M13.2845 14.9527C13.7203 14.5036 13.7345 13.8823 13.5362 13.4428C13.2773 12.869 12.7066 12.6017 12.0821 12.7619C12.007 12.7812 11.93 12.8004 11.8525 12.8186L11.1669 11.797C11.3391 11.7411 11.4733 11.7557 11.4866 11.7573C11.6507 11.7809 11.803 11.6682 11.8283 11.5043C11.8538 11.3394 11.7407 11.185 11.5757 11.1595C11.5548 11.1563 11.2122 11.1076 10.8223 11.2836L10.6893 11.0855C10.5963 10.9469 10.4087 10.9099 10.27 11.003C10.1314 11.096 10.0945 11.2837 10.1875 11.4223L10.3325 11.6385C10.3088 11.6638 10.2853 11.6901 10.2622 11.7181C9.99584 12.0416 9.93742 12.493 10.1098 12.896C10.2674 13.2644 10.5848 13.5095 10.9382 13.5355C11.1175 13.5487 11.3195 13.5357 11.5764 13.492L12.4587 14.8067C12.2838 14.9017 12.1432 14.9313 11.8792 14.9344C11.7123 14.9365 11.5786 15.0734 11.5807 15.2403C11.5826 15.4059 11.7175 15.5389 11.8827 15.5389H11.8865C12.2983 15.5339 12.5361 15.4604 12.7965 15.3101L12.9454 15.532C13.0037 15.619 13.0993 15.6659 13.1966 15.6659C13.2545 15.6659 13.3131 15.6493 13.3648 15.6146C13.5033 15.5216 13.5403 15.3339 13.4473 15.1953L13.2845 14.9527ZM10.9827 12.9328C10.8575 12.9236 10.733 12.8159 10.6656 12.6583C10.6078 12.5232 10.5876 12.3302 10.6856 12.1645L11.1999 12.9308C11.1224 12.9365 11.0492 12.9377 10.9827 12.9328ZM12.2323 13.3474C12.7297 13.2199 12.9343 13.5785 12.9853 13.6914C13.0809 13.9033 13.0881 14.1909 12.9322 14.4275L12.211 13.3528C12.2182 13.351 12.225 13.3493 12.2323 13.3474Z" fill="#81CDA1"/>
</svg>
