<svg width="108" height="68" viewBox="0 0 108 68" fill="none" xmlns="http://www.w3.org/2000/svg">
<g clip-path="url(#clip0_133_4927)">
<path d="M60.3115 7.28024C60.3115 10.7778 57.4853 13.6138 53.9999 13.6138C50.5145 13.6138 47.6882 10.7778 47.6882 7.28024C47.6882 3.78273 60.3115 3.78273 60.3115 7.28024Z" fill="#D8D8D8"/>
<path d="M53.9999 12.7423C28.8786 12.7423 8.51331 33.1784 8.51331 58.3869H99.4865C99.4865 33.1784 79.1212 12.7423 53.9999 12.7423Z" fill="#EFEFEF"/>
<path d="M53.9999 12.7423C51.8765 12.7423 49.7886 12.892 47.7435 13.1747C69.9034 16.234 86.9728 35.3083 86.9728 58.3869H99.4865C99.4865 33.1784 79.1212 12.7423 53.9999 12.7423Z" fill="#E2E2E2"/>
<path d="M104.879 65.3102H3.12039C1.39663 65.3102 0 63.9078 0 62.1789V60.1854C0 58.4565 1.39663 57.0542 3.12039 57.0542H104.88C106.603 57.0542 108 58.4565 108 60.1854V62.1789C108 63.9078 106.603 65.3102 104.879 65.3102Z" fill="#D8D8D8"/>
</g>
<defs>
<clipPath id="clip0_133_4927">
<rect width="108" height="68" fill="white"/>
</clipPath>
</defs>
</svg>
